<svg width="120" height="120" viewBox="0 0 120 120" fill="none" xmlns="http://www.w3.org/2000/svg">
<mask id="path-1-inside-1_0_1" fill="white">
<path fill-rule="evenodd" clip-rule="evenodd" d="M53.8331 63.57C52.7043 65.6012 51.8891 67.8089 51.4304 70.12C51.1596 71.4845 51.0174 72.8632 51.0015 74.2387C51.0005 74.3257 51 74.4128 51 74.5C51 74.5792 51.0004 74.6583 51.0012 74.7374C51.0377 78.1897 51.8686 81.6091 53.4559 84.7217C55.7516 89.2234 59.4958 92.8212 64.0854 94.9357C66.9998 96.2783 70.1473 96.9731 73.3148 96.9993C73.3765 96.9997 73.4382 97 73.5 97C73.572 97 73.6439 96.9997 73.7158 96.999C75.4036 96.9828 77.0945 96.7767 78.7563 96.3774C83.6697 95.1969 88.0427 92.3968 91.1708 88.4281C94.2989 84.4594 96 79.5533 96 74.5H95C95 86.3741 85.3741 96 73.5 96C61.6259 96 52 86.3741 52 74.5C52 70.7183 52.9764 67.1647 54.6908 64.0774L53.8331 63.57ZM65.0098 54.7414L64.6146 53.8288C67.127 52.7488 69.8327 52.1284 72.6031 52.0179C72.8606 52.0076 73.1178 52.0018 73.3747 52.0003C73.4165 52.0001 73.4582 52 73.5 52C73.5541 52 73.6082 52.0002 73.6622 52.0006C78.344 52.0342 82.9088 53.5284 86.7126 56.288L86.1263 57.0962C82.581 54.5197 78.218 53 73.5 53C70.4847 53 67.6143 53.6207 65.0098 54.7414Z"/>
</mask>
<path d="M53.8331 63.57L54.3423 62.7094L53.4581 62.1863L52.959 63.0843L53.8331 63.57ZM51.4304 70.12L50.4496 69.9253L51.4304 70.12ZM51.0015 74.2387L50.0016 74.2271L50.0016 74.2274L51.0015 74.2387ZM51.0012 74.7374L50.0013 74.7477L50.0013 74.7479L51.0012 74.7374ZM53.4559 84.7217L54.3467 84.2674L54.3467 84.2674L53.4559 84.7217ZM64.0854 94.9357L64.5039 94.0274L64.5039 94.0274L64.0854 94.9357ZM73.3148 96.9993L73.3065 97.9992L73.3067 97.9992L73.3148 96.9993ZM73.7158 96.999L73.7252 97.9989L73.7253 97.9989L73.7158 96.999ZM78.7563 96.3774L78.9899 97.3497L78.9899 97.3497L78.7563 96.3774ZM96 74.5H97V73.5H96V74.5ZM95 74.5V73.5H94V74.5H95ZM54.6908 64.0774L55.565 64.5629L56.0374 63.7121L55.1999 63.2167L54.6908 64.0774ZM65.0098 54.7414L64.0922 55.1388L64.4886 56.0543L65.405 55.66L65.0098 54.7414ZM64.6146 53.8288L64.2197 52.9101L63.2984 53.306L63.6969 54.2262L64.6146 53.8288ZM72.6031 52.0179L72.5632 51.0187L72.5632 51.0187L72.6031 52.0179ZM73.3747 52.0003L73.3693 51.0004L73.3692 51.0004L73.3747 52.0003ZM73.6622 52.0006L73.6694 51.0006L73.6693 51.0006L73.6622 52.0006ZM86.7126 56.288L87.522 56.8752L88.1093 56.0658L87.2998 55.4786L86.7126 56.288ZM86.1263 57.0962L85.5384 57.9051L86.348 58.4935L86.9357 57.6834L86.1263 57.0962ZM52.959 63.0843C51.78 65.2057 50.9286 67.5115 50.4496 69.9253L52.4113 70.3146C52.8496 68.1063 53.6285 65.9967 54.7072 64.0558L52.959 63.0843ZM50.4496 69.9253C50.1667 71.3505 50.0182 72.7904 50.0016 74.2271L52.0014 74.2503C52.0167 72.9359 52.1525 71.6185 52.4113 70.3146L50.4496 69.9253ZM50.0016 74.2274C50.0005 74.3181 50 74.409 50 74.5H52C52 74.4166 52.0005 74.3333 52.0014 74.2501L50.0016 74.2274ZM50 74.5C50 74.5827 50.0004 74.6652 50.0013 74.7477L52.0012 74.727C52.0004 74.6515 52 74.5758 52 74.5H50ZM50.0013 74.7479C50.0394 78.3537 50.9072 81.925 52.565 85.176L54.3467 84.2674C52.83 81.2931 52.036 78.0257 52.0012 74.7268L50.0013 74.7479ZM52.565 85.176C54.9627 89.8778 58.8734 93.6355 63.667 95.8439L64.5039 94.0274C60.1182 92.007 56.5404 88.569 54.3467 84.2674L52.565 85.176ZM63.667 95.8439C66.7109 97.2462 69.9983 97.9719 73.3065 97.9992L73.323 95.9993C70.2963 95.9743 67.2887 95.3104 64.5039 94.0274L63.667 95.8439ZM73.3067 97.9992C73.3711 97.9997 73.4355 98 73.5 98V96C73.4409 96 73.3819 95.9998 73.3228 95.9993L73.3067 97.9992ZM73.5 98C73.5751 98 73.6502 97.9996 73.7252 97.9989L73.7064 95.999C73.6376 95.9997 73.5689 96 73.5 96V98ZM73.7253 97.9989C75.4882 97.9821 77.2542 97.7668 78.9899 97.3497L78.5227 95.4051C76.9347 95.7866 75.319 95.9836 73.7062 95.999L73.7253 97.9989ZM78.9899 97.3497C84.1217 96.1168 88.6891 93.1922 91.9562 89.0471L90.3855 87.8091C87.3964 91.6014 83.2177 94.277 78.5227 95.4051L78.9899 97.3497ZM91.9562 89.0471C95.2233 84.9021 97 79.7779 97 74.5H95C95 79.3287 93.3745 84.0168 90.3855 87.8091L91.9562 89.0471ZM96 73.5H95V75.5H96V73.5ZM94 74.5C94 85.8218 84.8218 95 73.5 95V97C85.9264 97 96 86.9264 96 74.5H94ZM73.5 95C62.1782 95 53 85.8218 53 74.5H51C51 86.9264 61.0736 97 73.5 97V95ZM53 74.5C53 70.8925 53.931 67.5054 55.565 64.5629L53.8165 63.5919C52.0218 66.8239 51 70.5441 51 74.5H53ZM53.324 64.4307L54.1816 64.9381L55.1999 63.2167L54.3423 62.7094L53.324 64.4307ZM65.9274 54.344L65.5322 53.4314L63.6969 54.2262L64.0922 55.1388L65.9274 54.344ZM72.5632 51.0187C69.6697 51.1341 66.8437 51.7821 64.2197 52.9101L65.0095 54.7475C67.4103 53.7156 69.9957 53.1227 72.643 53.0171L72.5632 51.0187ZM73.3692 51.0004C73.1008 51.0019 72.8321 51.008 72.5632 51.0187L72.643 53.0171C72.889 53.0073 73.1348 53.0017 73.3803 53.0003L73.3692 51.0004ZM73.5 51C73.4564 51 73.4128 51.0001 73.3693 51.0004L73.3802 53.0003C73.4201 53.0001 73.46 53 73.5 53V51ZM73.6693 51.0006C73.6129 51.0002 73.5565 51 73.5 51V53C73.5518 53 73.6035 53.0002 73.6552 53.0005L73.6693 51.0006ZM87.2998 55.4786C83.3269 52.5963 78.5593 51.0358 73.6694 51.0006L73.655 53.0005C78.1287 53.0327 82.4906 54.4604 86.1254 57.0974L87.2998 55.4786ZM86.9357 57.6834L87.522 56.8752L85.9032 55.7008L85.3169 56.509L86.9357 57.6834ZM73.5 54C77.9998 54 82.1582 55.4486 85.5384 57.9051L86.7142 56.2873C83.0037 53.5907 78.4362 52 73.5 52V54ZM65.405 55.66C67.887 54.592 70.6231 54 73.5 54V52C70.3463 52 67.3416 52.6494 64.6146 53.8228L65.405 55.66Z" mask="url(#path-1-inside-1_0_1)"/>
<path d="M96 75H73.6857L50.8643 23L25 75"/>
</svg>
