<?xml version="1.0" standalone="no"?>
<!DOCTYPE svg PUBLIC "-//W3C//DTD SVG 20010904//EN"
 "http://www.w3.org/TR/2001/REC-SVG-20010904/DTD/svg10.dtd">
<svg version="1.0" xmlns="http://www.w3.org/2000/svg"
 width="700.000000pt" height="700.000000pt" viewBox="0 0 700.000000 700.000000"
 preserveAspectRatio="xMidYMid meet">
<metadata>
Created by potrace 1.14, written by Peter Selinger 2001-2017
</metadata>
<g transform="translate(0.000000,700.000000) scale(0.100000,-0.100000)"
fill="#000000" stroke="none">
<path d="M2360 6993 c-45 -17 -37 -5 -332 -573 -113 -217 -192 -368 -243 -465
-29 -55 -85 -163 -125 -240 -40 -77 -96 -185 -125 -240 -67 -128 -166 -317
-245 -470 -34 -66 -90 -174 -125 -240 -34 -66 -92 -176 -127 -245 -64 -122
-122 -233 -247 -472 -33 -65 -89 -171 -122 -235 -148 -284 -172 -329 -181
-340 -6 -7 -7 -13 -3 -13 4 0 3 -6 -3 -12 -9 -12 -31 -54 -193 -366 -34 -64
-87 -166 -119 -227 -171 -326 -172 -328 -167 -369 4 -26 16 -50 36 -70 29 -29
36 -31 128 -36 54 -3 344 -5 645 -5 l547 0 25 25 c20 21 226 417 226 436 0 3
9 18 19 33 l19 26 685 0 c378 -1 687 -3 689 -5 3 -5 13 -26 308 -625 367 -745
494 -1003 737 -1495 135 -272 268 -542 295 -600 28 -58 62 -117 76 -132 30
-33 78 -44 124 -29 48 16 48 17 204 306 14 28 39 73 54 100 15 28 46 86 70
130 24 44 69 127 100 185 97 178 120 222 178 330 31 58 60 107 64 108 4 2 8
12 8 22 0 9 7 23 15 30 8 7 15 16 15 20 0 4 19 43 43 86 24 44 62 113 84 154
34 64 153 283 278 515 18 33 74 137 125 230 51 94 107 197 125 230 18 33 120
222 227 420 107 198 212 392 233 430 21 39 52 95 68 125 16 30 42 78 57 105
15 28 44 80 64 118 20 37 51 95 70 130 18 34 78 143 131 242 54 99 113 209
133 245 84 153 93 174 89 210 -2 19 -10 45 -18 58 -32 51 -32 51 -668 55 -524
3 -597 2 -625 -12 -29 -15 -93 -112 -166 -256 -12 -22 -25 -47 -30 -55 -17
-28 -87 -154 -125 -225 -21 -38 -80 -144 -130 -235 -51 -91 -166 -298 -255
-460 -90 -162 -172 -311 -183 -330 -21 -37 -27 -48 -150 -270 -44 -80 -81
-147 -83 -149 -2 -2 -19 30 -37 70 -19 41 -55 117 -80 169 -50 107 -116 246
-172 365 -21 44 -71 149 -111 233 -41 85 -74 155 -74 157 0 2 -29 63 -64 137
-35 73 -82 171 -104 218 -38 81 -168 356 -265 560 -24 52 -56 120 -70 150 -14
30 -59 126 -101 214 -42 87 -76 159 -76 161 0 1 -33 72 -74 156 -40 85 -87
183 -103 219 -17 36 -57 119 -88 185 -32 66 -72 152 -90 190 -18 39 -55 117
-83 175 -27 58 -71 150 -97 205 -26 55 -66 138 -88 185 -22 47 -41 87 -42 90
-1 3 -17 39 -37 80 -20 41 -57 120 -83 175 -113 241 -127 266 -151 281 -26 18
-89 27 -114 17z"/>
</g>
</svg>
